<svg xmlns="http://www.w3.org/2000/svg" xmlns:xlink="http://www.w3.org/1999/xlink" width="500" zoomAndPan="magnify" viewBox="0 0 375 374.999991" height="500" preserveAspectRatio="xMidYMid meet" version="1.0"><defs><g/></defs><g fill="#000000" fill-opacity="1"><g transform="translate(124.263637, 183.099994)"><g><path d="M 13.453125 -11.203125 L 13.453125 0 L 12.3125 0 L 12.3125 -8.953125 L 7.921875 -1.421875 L 7.359375 -1.421875 L 2.953125 -8.90625 L 2.953125 0 L 1.828125 0 L 1.828125 -11.203125 L 2.796875 -11.203125 L 7.65625 -2.890625 L 12.484375 -11.203125 Z M 13.453125 -11.203125 "/></g></g></g><g fill="#000000" fill-opacity="1"><g transform="translate(146.739987, 183.099994)"><g><path d="M 1.828125 -11.203125 L 3.015625 -11.203125 L 3.015625 0 L 1.828125 0 Z M 1.828125 -11.203125 "/></g></g></g><g fill="#000000" fill-opacity="1"><g transform="translate(158.770845, 183.099994)"><g><path d="M 11.1875 -11.203125 L 11.1875 0 L 10.203125 0 L 3.015625 -9.09375 L 3.015625 0 L 1.828125 0 L 1.828125 -11.203125 L 2.796875 -11.203125 L 10.015625 -2.109375 L 10.015625 -11.203125 Z M 11.1875 -11.203125 "/></g></g></g><g fill="#000000" fill-opacity="1"><g transform="translate(181.794249, 196.602691)"><g><path d="M 10.15625 -16.28125 C 9.945312 -15.875 9.75 -15.453125 9.5625 -15.015625 C 9.375 -14.578125 9.140625 -14.175781 8.859375 -13.8125 C 8.816406 -13.6875 8.773438 -13.5625 8.734375 -13.4375 C 8.691406 -13.3125 8.628906 -13.1875 8.546875 -13.0625 C 8.460938 -12.726562 8.335938 -12.40625 8.171875 -12.09375 C 8.003906 -11.789062 7.816406 -11.472656 7.609375 -11.140625 C 7.453125 -10.859375 7.300781 -10.5625 7.15625 -10.25 C 7.007812 -9.9375 6.875 -9.613281 6.75 -9.28125 C 6.582031 -9 6.414062 -8.679688 6.25 -8.328125 C 6.082031 -7.972656 5.921875 -7.613281 5.765625 -7.25 C 5.679688 -7.207031 5.578125 -7.195312 5.453125 -7.21875 C 5.328125 -7.238281 5.242188 -7.144531 5.203125 -6.9375 C 5.078125 -6.726562 5.097656 -6.601562 5.265625 -6.5625 C 5.304688 -6.519531 5.335938 -6.476562 5.359375 -6.4375 C 5.378906 -6.394531 5.390625 -6.375 5.390625 -6.375 C 5.222656 -6.207031 5.109375 -5.976562 5.046875 -5.6875 C 4.984375 -5.40625 4.847656 -5.140625 4.640625 -4.890625 C 4.515625 -4.679688 4.390625 -4.460938 4.265625 -4.234375 C 4.148438 -4.015625 3.96875 -3.863281 3.71875 -3.78125 C 3.550781 -3.695312 3.4375 -3.570312 3.375 -3.40625 C 3.3125 -3.238281 3.257812 -3.070312 3.21875 -2.90625 C 3.175781 -2.78125 3.144531 -2.632812 3.125 -2.46875 C 3.101562 -2.3125 3.050781 -2.171875 2.96875 -2.046875 C 2.925781 -1.378906 2.640625 -0.78125 2.109375 -0.25 C 1.941406 -0.0820312 1.835938 0.125 1.796875 0.375 C 1.753906 0.625 1.648438 0.828125 1.484375 0.984375 C 1.316406 1.234375 1.191406 1.378906 1.109375 1.421875 C 0.984375 1.546875 0.820312 1.609375 0.625 1.609375 C 0.289062 1.609375 0.0625 1.484375 -0.0625 1.234375 C -0.144531 0.867188 -0.238281 0.5 -0.34375 0.125 C -0.445312 -0.25 -0.414062 -0.617188 -0.25 -0.984375 C -0.0820312 -1.816406 0.179688 -2.601562 0.546875 -3.34375 C 0.921875 -4.082031 1.316406 -4.804688 1.734375 -5.515625 C 1.984375 -5.753906 2.085938 -6 2.046875 -6.25 C 1.960938 -6.375 2.046875 -6.519531 2.296875 -6.6875 C 2.617188 -7.019531 2.851562 -7.378906 3 -7.765625 C 3.144531 -8.160156 3.300781 -8.546875 3.46875 -8.921875 C 3.882812 -9.703125 4.304688 -10.472656 4.734375 -11.234375 C 5.171875 -12.003906 5.613281 -12.738281 6.0625 -13.4375 C 6.3125 -13.769531 6.53125 -14.109375 6.71875 -14.453125 C 6.90625 -14.804688 7.082031 -15.171875 7.25 -15.546875 C 7.570312 -16.035156 7.878906 -16.535156 8.171875 -17.046875 C 8.460938 -17.566406 8.734375 -18.078125 8.984375 -18.578125 C 8.941406 -18.617188 8.835938 -18.640625 8.671875 -18.640625 C 8.378906 -18.640625 8.066406 -18.554688 7.734375 -18.390625 C 7.492188 -18.222656 7.289062 -18.140625 7.125 -18.140625 C 6.914062 -18.140625 6.707031 -18.109375 6.5 -18.046875 C 6.289062 -17.984375 6.144531 -17.828125 6.0625 -17.578125 C 6.0625 -17.503906 6 -17.46875 5.875 -17.46875 C 5.59375 -17.425781 5.328125 -17.289062 5.078125 -17.0625 C 4.828125 -16.832031 4.535156 -16.675781 4.203125 -16.59375 C 3.503906 -16.300781 2.84375 -15.925781 2.21875 -15.46875 C 1.601562 -15.019531 0.945312 -14.59375 0.25 -14.1875 C 0.207031 -14.1875 0.144531 -14.144531 0.0625 -14.0625 C -0.0625 -13.726562 -0.253906 -13.457031 -0.515625 -13.25 C -0.785156 -13.039062 -1.066406 -12.832031 -1.359375 -12.625 C -1.566406 -12.425781 -1.671875 -12.222656 -1.671875 -12.015625 L -1.671875 -11.328125 C -1.671875 -11.242188 -1.703125 -11.148438 -1.765625 -11.046875 C -1.828125 -10.941406 -1.898438 -10.910156 -1.984375 -10.953125 C -2.234375 -11.078125 -2.359375 -11.203125 -2.359375 -11.328125 C -2.515625 -11.742188 -2.492188 -12.21875 -2.296875 -12.75 C -1.710938 -13.945312 -0.914062 -14.96875 0.09375 -15.8125 C 1.101562 -16.664062 2.1875 -17.359375 3.34375 -17.890625 C 3.675781 -18.179688 4.085938 -18.390625 4.578125 -18.515625 C 4.742188 -18.597656 4.898438 -18.660156 5.046875 -18.703125 C 5.191406 -18.742188 5.328125 -18.847656 5.453125 -19.015625 C 5.535156 -19.054688 5.625 -19.085938 5.71875 -19.109375 C 5.820312 -19.128906 5.894531 -19.160156 5.9375 -19.203125 C 6.101562 -19.316406 6.289062 -19.363281 6.5 -19.34375 C 6.707031 -19.320312 6.875 -19.375 7 -19.5 C 7.125 -19.664062 7.265625 -19.769531 7.421875 -19.8125 C 7.585938 -19.851562 7.753906 -19.894531 7.921875 -19.9375 C 8.253906 -20.019531 8.5625 -20.144531 8.84375 -20.3125 C 9.132812 -20.476562 9.425781 -20.644531 9.71875 -20.8125 C 10.09375 -20.96875 10.378906 -21.210938 10.578125 -21.546875 C 10.785156 -21.878906 10.972656 -22.210938 11.140625 -22.546875 C 11.472656 -23.328125 11.851562 -24.078125 12.28125 -24.796875 C 12.71875 -25.523438 13.144531 -26.238281 13.5625 -26.9375 C 13.6875 -27.269531 13.828125 -27.554688 13.984375 -27.796875 C 14.148438 -28.046875 14.316406 -28.316406 14.484375 -28.609375 C 14.648438 -29.054688 14.859375 -29.5 15.109375 -29.9375 C 15.359375 -30.375 15.585938 -30.796875 15.796875 -31.203125 C 15.992188 -31.535156 16.1875 -31.863281 16.375 -32.1875 C 16.5625 -32.519531 16.738281 -32.851562 16.90625 -33.1875 C 17.476562 -34.132812 18.007812 -35.082031 18.5 -36.03125 C 19 -36.988281 19.5 -37.960938 20 -38.953125 C 20.207031 -39.359375 20.429688 -39.757812 20.671875 -40.15625 C 20.921875 -40.550781 21.148438 -40.929688 21.359375 -41.296875 C 21.484375 -41.585938 21.597656 -41.859375 21.703125 -42.109375 C 21.804688 -42.359375 21.898438 -42.601562 21.984375 -42.84375 C 22.066406 -43.050781 22.148438 -43.257812 22.234375 -43.46875 C 22.316406 -43.675781 22.398438 -43.882812 22.484375 -44.09375 C 22.597656 -44.375 22.707031 -44.679688 22.8125 -45.015625 C 22.914062 -45.347656 22.96875 -45.679688 22.96875 -46.015625 C 22.96875 -46.378906 23.132812 -46.5625 23.46875 -46.5625 C 23.632812 -46.5625 23.757812 -46.519531 23.84375 -46.4375 C 24.007812 -46.351562 24.160156 -46.25 24.296875 -46.125 C 24.441406 -46.007812 24.535156 -45.847656 24.578125 -45.640625 C 24.703125 -45.347656 24.828125 -45.035156 24.953125 -44.703125 C 25.078125 -44.378906 25.035156 -44.050781 24.828125 -43.71875 C 24.785156 -43.71875 24.785156 -43.695312 24.828125 -43.65625 C 24.867188 -43.613281 24.890625 -43.59375 24.890625 -43.59375 C 24.890625 -43.59375 24.898438 -43.59375 24.921875 -43.59375 C 24.941406 -43.59375 24.972656 -43.613281 25.015625 -43.65625 C 25.222656 -44.113281 25.5 -44.535156 25.84375 -44.921875 C 26.195312 -45.316406 26.5625 -45.695312 26.9375 -46.0625 C 27.269531 -46.351562 27.585938 -46.625 27.890625 -46.875 C 28.203125 -47.125 28.503906 -47.394531 28.796875 -47.6875 C 28.921875 -47.757812 29.050781 -47.816406 29.1875 -47.859375 C 29.332031 -47.898438 29.46875 -47.941406 29.59375 -47.984375 C 29.925781 -47.898438 30.265625 -47.804688 30.609375 -47.703125 C 30.960938 -47.609375 31.242188 -47.394531 31.453125 -47.0625 C 31.578125 -46.9375 31.640625 -46.789062 31.640625 -46.625 C 31.640625 -46.457031 31.660156 -46.3125 31.703125 -46.1875 C 31.785156 -45.988281 31.828125 -45.773438 31.828125 -45.546875 C 31.828125 -45.316406 31.804688 -45.097656 31.765625 -44.890625 C 31.722656 -44.359375 31.609375 -43.851562 31.421875 -43.375 C 31.234375 -42.90625 31.039062 -42.441406 30.84375 -41.984375 C 30.632812 -41.691406 30.351562 -41.0625 30 -40.09375 C 29.644531 -39.125 29.28125 -38.039062 28.90625 -36.84375 C 28.539062 -35.644531 28.222656 -34.519531 27.953125 -33.46875 C 27.691406 -32.414062 27.539062 -31.640625 27.5 -31.140625 C 27.5 -31.015625 27.488281 -30.910156 27.46875 -30.828125 C 27.445312 -30.753906 27.4375 -30.675781 27.4375 -30.59375 C 27.269531 -30.257812 27.144531 -29.925781 27.0625 -29.59375 C 26.976562 -29.269531 26.957031 -28.921875 27 -28.546875 C 27 -28.503906 27.007812 -28.429688 27.03125 -28.328125 C 27.050781 -28.222656 27.039062 -28.148438 27 -28.109375 C 26.832031 -27.898438 26.769531 -27.660156 26.8125 -27.390625 C 26.851562 -27.128906 26.832031 -26.894531 26.75 -26.6875 C 26.582031 -26.3125 26.539062 -25.976562 26.625 -25.6875 C 26.707031 -25.40625 26.832031 -25.117188 27 -24.828125 C 27.082031 -24.785156 27.125 -24.710938 27.125 -24.609375 C 27.125 -24.503906 27.144531 -24.410156 27.1875 -24.328125 C 27.1875 -24.171875 27.164062 -24.09375 27.125 -24.09375 C 26.875 -23.84375 26.707031 -23.582031 26.625 -23.3125 C 26.539062 -23.039062 26.5 -22.742188 26.5 -22.421875 C 26.539062 -21.421875 26.550781 -20.457031 26.53125 -19.53125 C 26.507812 -18.601562 26.5 -17.664062 26.5 -16.71875 C 26.5 -16.550781 26.507812 -16.382812 26.53125 -16.21875 C 26.550781 -16.050781 26.601562 -15.890625 26.6875 -15.734375 C 26.726562 -15.648438 26.707031 -15.484375 26.625 -15.234375 C 26.5 -15.023438 26.476562 -14.878906 26.5625 -14.796875 C 26.726562 -14.503906 26.8125 -14.203125 26.8125 -13.890625 C 26.8125 -13.585938 26.789062 -13.289062 26.75 -13 C 26.75 -12.707031 26.8125 -12.445312 26.9375 -12.21875 C 27.0625 -12 27.101562 -11.722656 27.0625 -11.390625 C 27.269531 -10.984375 27.40625 -10.539062 27.46875 -10.0625 C 27.53125 -9.582031 27.5625 -9.117188 27.5625 -8.671875 C 27.5625 -8.503906 27.585938 -8.335938 27.640625 -8.171875 C 27.703125 -8.003906 27.753906 -7.859375 27.796875 -7.734375 C 27.796875 -7.578125 27.796875 -7.25 27.796875 -6.75 C 27.796875 -6.25 27.816406 -5.898438 27.859375 -5.703125 C 27.941406 -5.617188 27.941406 -5.523438 27.859375 -5.421875 C 27.773438 -5.316406 27.773438 -5.203125 27.859375 -5.078125 C 28.148438 -4.460938 28.273438 -3.96875 28.234375 -3.59375 C 28.191406 -3.21875 28.316406 -2.679688 28.609375 -1.984375 C 28.691406 -1.609375 28.863281 -1.03125 29.125 -0.25 C 29.394531 0.53125 29.726562 1.257812 30.125 1.9375 C 30.519531 2.625 30.921875 3.050781 31.328125 3.21875 C 31.578125 3.300781 31.742188 3.382812 31.828125 3.46875 C 31.953125 3.550781 31.992188 3.65625 31.953125 3.78125 C 31.953125 3.863281 31.867188 3.945312 31.703125 4.03125 C 31.328125 3.988281 30.984375 3.925781 30.671875 3.84375 C 30.367188 3.757812 30.132812 3.570312 29.96875 3.28125 C 29.550781 2.625 29.15625 1.941406 28.78125 1.234375 C 28.414062 0.535156 28.109375 -0.179688 27.859375 -0.921875 C 27.816406 -1.003906 27.785156 -1.085938 27.765625 -1.171875 C 27.742188 -1.253906 27.710938 -1.316406 27.671875 -1.359375 C 27.671875 -1.859375 27.523438 -2.550781 27.234375 -3.4375 C 26.953125 -4.320312 26.769531 -5.015625 26.6875 -5.515625 C 26.601562 -6.085938 26.46875 -6.835938 26.28125 -7.765625 C 26.09375 -8.703125 25.976562 -9.457031 25.9375 -10.03125 C 25.78125 -10.363281 25.722656 -10.710938 25.765625 -11.078125 C 25.804688 -11.453125 25.742188 -11.804688 25.578125 -12.140625 C 25.492188 -12.179688 25.453125 -12.265625 25.453125 -12.390625 C 25.453125 -12.753906 25.441406 -13.125 25.421875 -13.5 C 25.398438 -13.875 25.328125 -14.222656 25.203125 -14.546875 C 25.285156 -15.003906 25.265625 -15.445312 25.140625 -15.875 C 25.015625 -16.3125 24.953125 -16.757812 24.953125 -17.21875 C 24.992188 -17.664062 25.003906 -18.097656 24.984375 -18.515625 C 24.960938 -18.929688 24.953125 -19.34375 24.953125 -19.75 C 24.910156 -20.125 24.898438 -20.492188 24.921875 -20.859375 C 24.941406 -21.234375 24.910156 -21.609375 24.828125 -21.984375 C 24.828125 -22.066406 24.835938 -22.117188 24.859375 -22.140625 C 24.878906 -22.160156 24.890625 -22.191406 24.890625 -22.234375 C 24.972656 -22.679688 24.972656 -22.957031 24.890625 -23.0625 C 24.804688 -23.164062 24.640625 -23.21875 24.390625 -23.21875 C 24.347656 -23.21875 24.285156 -23.21875 24.203125 -23.21875 C 24.128906 -23.21875 24.050781 -23.21875 23.96875 -23.21875 C 23.675781 -23.21875 23.46875 -23.175781 23.34375 -23.09375 C 23.175781 -23.050781 23.03125 -23.019531 22.90625 -23 C 22.78125 -22.976562 22.640625 -22.96875 22.484375 -22.96875 C 22.109375 -22.96875 21.742188 -22.957031 21.390625 -22.9375 C 21.046875 -22.914062 20.707031 -22.820312 20.375 -22.65625 C 19.46875 -22.332031 18.535156 -22.109375 17.578125 -21.984375 C 16.585938 -21.816406 15.554688 -21.523438 14.484375 -21.109375 C 14.078125 -20.984375 13.675781 -20.796875 13.28125 -20.546875 C 12.882812 -20.304688 12.503906 -20.082031 12.140625 -19.875 C 12.015625 -19.625 11.835938 -19.40625 11.609375 -19.21875 C 11.378906 -19.039062 11.222656 -18.804688 11.140625 -18.515625 C 11.097656 -18.304688 11.003906 -18.117188 10.859375 -17.953125 C 10.722656 -17.785156 10.570312 -17.660156 10.40625 -17.578125 C 10.40625 -17.085938 10.320312 -16.65625 10.15625 -16.28125 Z M 25.265625 -28.421875 C 25.222656 -28.503906 25.222656 -28.566406 25.265625 -28.609375 C 25.347656 -28.816406 25.398438 -29.039062 25.421875 -29.28125 C 25.441406 -29.53125 25.453125 -29.757812 25.453125 -29.96875 C 25.535156 -30.21875 25.597656 -30.453125 25.640625 -30.671875 C 25.679688 -30.898438 25.722656 -31.117188 25.765625 -31.328125 C 25.960938 -32.398438 26.226562 -33.671875 26.5625 -35.140625 C 26.894531 -36.609375 27.273438 -38.0625 27.703125 -39.5 C 28.140625 -40.945312 28.609375 -42.164062 29.109375 -43.15625 C 29.265625 -43.488281 29.394531 -43.835938 29.5 -44.203125 C 29.601562 -44.578125 29.695312 -44.953125 29.78125 -45.328125 L 29.78125 -45.515625 C 29.738281 -45.554688 29.707031 -45.609375 29.6875 -45.671875 C 29.664062 -45.734375 29.632812 -45.765625 29.59375 -45.765625 C 29.425781 -45.640625 29.21875 -45.554688 28.96875 -45.515625 C 28.726562 -45.472656 28.546875 -45.347656 28.421875 -45.140625 C 28.296875 -44.890625 28.117188 -44.679688 27.890625 -44.515625 C 27.671875 -44.359375 27.476562 -44.15625 27.3125 -43.90625 L 26.125 -42.71875 C 26 -42.601562 25.921875 -42.546875 25.890625 -42.546875 C 25.597656 -42.421875 25.367188 -42.253906 25.203125 -42.046875 C 25.035156 -41.835938 24.867188 -41.628906 24.703125 -41.421875 C 24.453125 -41.097656 24.203125 -40.769531 23.953125 -40.4375 C 23.710938 -40.101562 23.46875 -39.789062 23.21875 -39.5 C 22.476562 -38.757812 21.941406 -38 21.609375 -37.21875 C 21.484375 -36.925781 21.347656 -36.632812 21.203125 -36.34375 C 21.054688 -36.0625 20.90625 -35.796875 20.75 -35.546875 C 20.375 -34.921875 19.988281 -34.304688 19.59375 -33.703125 C 19.207031 -33.109375 18.828125 -32.523438 18.453125 -31.953125 C 18.453125 -31.953125 18.335938 -31.710938 18.109375 -31.234375 C 17.878906 -30.765625 17.660156 -30.28125 17.453125 -29.78125 C 17.253906 -29.289062 17.132812 -29.023438 17.09375 -28.984375 C 17.09375 -28.859375 17.03125 -28.753906 16.90625 -28.671875 C 16.695312 -28.421875 16.53125 -28.171875 16.40625 -27.921875 C 16.28125 -27.679688 16.113281 -27.4375 15.90625 -27.1875 C 15.75 -26.976562 15.597656 -26.75 15.453125 -26.5 C 15.304688 -26.25 15.210938 -25.960938 15.171875 -25.640625 C 15.171875 -25.597656 15.128906 -25.554688 15.046875 -25.515625 C 14.753906 -25.097656 14.492188 -24.628906 14.265625 -24.109375 C 14.046875 -23.597656 13.8125 -23.09375 13.5625 -22.59375 C 13.5625 -22.59375 13.5625 -22.472656 13.5625 -22.234375 C 15.582031 -22.929688 17.457031 -23.472656 19.1875 -23.859375 C 20.925781 -24.253906 22.867188 -24.578125 25.015625 -24.828125 C 24.972656 -25.492188 25.015625 -26.101562 25.140625 -26.65625 C 25.265625 -27.21875 25.304688 -27.804688 25.265625 -28.421875 Z M 26.3125 -28.421875 L 26.4375 -28.546875 L 26.3125 -28.546875 Z M 26.1875 -25.9375 L 26.125 -26 L 26.0625 -25.890625 Z M 26.1875 -25.9375 "/></g></g></g><g fill="#000000" fill-opacity="1"><g transform="translate(213.615323, 196.602691)"><g><path d="M 11.765625 -15.046875 C 11.597656 -14.671875 11.429688 -14.304688 11.265625 -13.953125 C 11.097656 -13.609375 10.914062 -13.269531 10.71875 -12.9375 C 10.59375 -12.6875 10.632812 -12.503906 10.84375 -12.390625 C 11.039062 -12.222656 11.425781 -11.847656 12 -11.265625 C 12.582031 -10.691406 13.210938 -10.039062 13.890625 -9.3125 C 14.578125 -8.59375 15.1875 -7.921875 15.71875 -7.296875 C 16.257812 -6.679688 16.550781 -6.269531 16.59375 -6.0625 C 16.71875 -5.863281 16.863281 -5.703125 17.03125 -5.578125 C 17.363281 -5.453125 17.546875 -5.203125 17.578125 -4.828125 C 17.578125 -4.785156 17.640625 -4.703125 17.765625 -4.578125 C 17.972656 -4.535156 18.117188 -4.398438 18.203125 -4.171875 C 18.285156 -3.953125 18.453125 -3.800781 18.703125 -3.71875 C 18.867188 -3.425781 19.070312 -3.15625 19.3125 -2.90625 C 19.5625 -2.65625 19.789062 -2.410156 20 -2.171875 C 20.164062 -2.003906 20.320312 -1.835938 20.46875 -1.671875 C 20.613281 -1.503906 20.707031 -1.273438 20.75 -0.984375 C 20.75 -0.898438 20.769531 -0.859375 20.8125 -0.859375 C 21.175781 -0.703125 21.460938 -0.425781 21.671875 -0.03125 C 21.878906 0.363281 22.171875 0.660156 22.546875 0.859375 C 22.785156 1.148438 23.03125 1.429688 23.28125 1.703125 C 23.53125 1.972656 23.738281 2.269531 23.90625 2.59375 C 24.113281 2.84375 24.304688 3.070312 24.484375 3.28125 C 24.671875 3.488281 24.890625 3.65625 25.140625 3.78125 C 25.265625 3.90625 25.390625 4.023438 25.515625 4.140625 C 25.640625 4.265625 25.742188 4.390625 25.828125 4.515625 C 25.941406 4.640625 26.0625 4.796875 26.1875 4.984375 C 26.3125 5.171875 26.414062 5.347656 26.5 5.515625 C 26.625 5.679688 26.78125 5.789062 26.96875 5.84375 C 27.15625 5.90625 27.269531 6.039062 27.3125 6.25 C 27.3125 6.375 27.351562 6.4375 27.4375 6.4375 C 27.882812 6.726562 28.253906 7.066406 28.546875 7.453125 C 28.835938 7.847656 29.144531 8.210938 29.46875 8.546875 C 29.632812 8.753906 29.800781 8.925781 29.96875 9.0625 C 30.132812 9.207031 30.300781 9.34375 30.46875 9.46875 C 30.675781 9.632812 30.878906 9.8125 31.078125 10 C 31.285156 10.1875 31.429688 10.425781 31.515625 10.71875 C 31.515625 10.832031 31.472656 10.929688 31.390625 11.015625 C 31.347656 11.140625 31.242188 11.160156 31.078125 11.078125 C 30.992188 10.992188 30.878906 10.921875 30.734375 10.859375 C 30.597656 10.804688 30.488281 10.71875 30.40625 10.59375 C 30.320312 10.507812 30.226562 10.394531 30.125 10.25 C 30.019531 10.101562 29.882812 10.03125 29.71875 10.03125 C 29.59375 10.03125 29.507812 10.050781 29.46875 10.09375 C 29.46875 10.09375 29.457031 10.082031 29.4375 10.0625 C 29.414062 10.039062 29.382812 10.03125 29.34375 10.03125 C 29.0625 9.65625 28.734375 9.34375 28.359375 9.09375 C 27.984375 8.851562 27.65625 8.546875 27.375 8.171875 C 27.125 7.878906 26.875 7.597656 26.625 7.328125 C 26.375 7.066406 26.085938 6.851562 25.765625 6.6875 C 25.472656 6.519531 25.203125 6.234375 24.953125 5.828125 C 24.785156 5.535156 24.609375 5.285156 24.421875 5.078125 C 24.242188 4.867188 24.03125 4.660156 23.78125 4.453125 C 23.570312 4.210938 23.363281 3.945312 23.15625 3.65625 C 22.945312 3.363281 22.703125 3.132812 22.421875 2.96875 C 22.085938 2.394531 21.679688 1.898438 21.203125 1.484375 C 20.734375 1.066406 20.3125 0.59375 19.9375 0.0625 C 19.5625 -0.519531 19.113281 -1.046875 18.59375 -1.515625 C 18.082031 -1.992188 17.664062 -2.539062 17.34375 -3.15625 L 17.28125 -3.21875 C 16.695312 -3.84375 16.132812 -4.492188 15.59375 -5.171875 C 15.0625 -5.847656 14.488281 -6.5 13.875 -7.125 L 13.6875 -7.3125 C 13.4375 -7.632812 13.164062 -7.929688 12.875 -8.203125 C 12.59375 -8.472656 12.304688 -8.753906 12.015625 -9.046875 C 11.722656 -9.328125 11.441406 -9.601562 11.171875 -9.875 C 10.910156 -10.144531 10.65625 -10.425781 10.40625 -10.71875 C 10.320312 -10.800781 10.195312 -10.878906 10.03125 -10.953125 C 9.863281 -10.671875 9.71875 -10.382812 9.59375 -10.09375 C 9.46875 -9.800781 9.34375 -9.507812 9.21875 -9.21875 C 9.101562 -8.9375 9.003906 -8.671875 8.921875 -8.421875 C 8.878906 -8.253906 8.835938 -8.085938 8.796875 -7.921875 C 8.753906 -7.753906 8.691406 -7.613281 8.609375 -7.5 C 8.359375 -7 8.140625 -6.488281 7.953125 -5.96875 C 7.765625 -5.457031 7.570312 -4.953125 7.375 -4.453125 C 7.332031 -4.328125 7.300781 -4.210938 7.28125 -4.109375 C 7.257812 -4.015625 7.226562 -3.882812 7.1875 -3.71875 C 7.101562 -3.425781 7.019531 -3.09375 6.9375 -2.71875 C 6.851562 -2.351562 6.75 -2.003906 6.625 -1.671875 C 6.457031 -1.210938 6.300781 -0.734375 6.15625 -0.234375 C 6.007812 0.253906 5.898438 0.742188 5.828125 1.234375 C 5.703125 1.773438 5.535156 2.3125 5.328125 2.84375 C 5.117188 3.382812 4.910156 3.941406 4.703125 4.515625 C 4.660156 4.640625 4.578125 4.703125 4.453125 4.703125 C 4.410156 4.703125 4.347656 4.660156 4.265625 4.578125 C 4.148438 4.410156 4.0625 4.253906 4 4.109375 C 3.9375 3.972656 3.800781 3.84375 3.59375 3.71875 C 3.425781 3.71875 3.382812 3.59375 3.46875 3.34375 C 3.71875 3.007812 3.695312 2.703125 3.40625 2.421875 C 3.238281 2.210938 3.125 1.992188 3.0625 1.765625 C 3 1.535156 2.945312 1.296875 2.90625 1.046875 C 2.863281 0.765625 2.820312 0.476562 2.78125 0.1875 C 2.738281 -0.101562 2.757812 -0.394531 2.84375 -0.6875 C 2.925781 -0.800781 2.957031 -0.941406 2.9375 -1.109375 C 2.914062 -1.273438 2.90625 -1.421875 2.90625 -1.546875 L 2.90625 -6.5 C 2.90625 -6.707031 2.914062 -6.925781 2.9375 -7.15625 C 2.957031 -7.382812 3.007812 -7.578125 3.09375 -7.734375 C 3.132812 -7.816406 3.15625 -7.921875 3.15625 -8.046875 C 3.15625 -8.171875 3.15625 -8.273438 3.15625 -8.359375 L 3.15625 -10.65625 C 3.195312 -10.894531 3.21875 -11.140625 3.21875 -11.390625 C 3.21875 -11.640625 3.257812 -11.890625 3.34375 -12.140625 C 3.425781 -12.347656 3.457031 -12.5625 3.4375 -12.78125 C 3.414062 -13.007812 3.40625 -13.207031 3.40625 -13.375 C 3.40625 -13.582031 3.300781 -13.6875 3.09375 -13.6875 L 0.859375 -13.6875 C 0.578125 -13.6875 0.40625 -13.726562 0.34375 -13.8125 C 0.28125 -13.894531 0.25 -14.078125 0.25 -14.359375 C 0.207031 -14.609375 0.1875 -14.835938 0.1875 -15.046875 C 0.1875 -15.253906 0.125 -15.484375 0 -15.734375 C -0.0390625 -15.847656 -0.0078125 -15.988281 0.09375 -16.15625 C 0.195312 -16.320312 0.332031 -16.425781 0.5 -16.46875 L 3.15625 -16.46875 C 3.363281 -16.46875 3.539062 -16.570312 3.6875 -16.78125 C 3.832031 -16.988281 3.863281 -17.21875 3.78125 -17.46875 C 3.738281 -17.582031 3.695312 -17.691406 3.65625 -17.796875 C 3.613281 -17.898438 3.613281 -17.992188 3.65625 -18.078125 C 3.820312 -18.367188 3.894531 -18.632812 3.875 -18.875 C 3.851562 -19.125 3.84375 -19.394531 3.84375 -19.6875 C 3.882812 -19.894531 3.90625 -20.101562 3.90625 -20.3125 C 3.90625 -20.519531 3.945312 -20.722656 4.03125 -20.921875 C 4.070312 -21.003906 4.09375 -21.148438 4.09375 -21.359375 C 4.132812 -21.648438 4.160156 -21.910156 4.171875 -22.140625 C 4.191406 -22.367188 4.222656 -22.625 4.265625 -22.90625 C 4.347656 -23.113281 4.378906 -23.34375 4.359375 -23.59375 C 4.335938 -23.84375 4.390625 -24.050781 4.515625 -24.21875 C 4.515625 -24.25 4.523438 -24.296875 4.546875 -24.359375 C 4.566406 -24.421875 4.578125 -24.472656 4.578125 -24.515625 C 4.535156 -24.972656 4.578125 -25.40625 4.703125 -25.8125 C 4.828125 -26.226562 4.867188 -26.664062 4.828125 -27.125 C 5.035156 -27.988281 5.203125 -28.875 5.328125 -29.78125 C 5.453125 -30.6875 5.65625 -31.554688 5.9375 -32.390625 C 6.269531 -33.210938 6.640625 -34.035156 7.046875 -34.859375 C 7.460938 -35.679688 7.941406 -36.488281 8.484375 -37.28125 C 8.941406 -38.019531 9.570312 -38.71875 10.375 -39.375 C 11.175781 -40.039062 12.039062 -40.617188 12.96875 -41.109375 C 13.894531 -41.609375 14.753906 -41.941406 15.546875 -42.109375 C 16.453125 -42.234375 17.265625 -42.316406 17.984375 -42.359375 C 18.710938 -42.398438 19.53125 -42.421875 20.4375 -42.421875 C 20.644531 -42.421875 20.867188 -42.410156 21.109375 -42.390625 C 21.359375 -42.367188 21.585938 -42.316406 21.796875 -42.234375 C 21.960938 -42.191406 22.191406 -42.171875 22.484375 -42.171875 C 22.554688 -42.171875 22.65625 -42.171875 22.78125 -42.171875 C 22.90625 -42.171875 23.007812 -42.171875 23.09375 -42.171875 C 23.550781 -42.171875 23.960938 -42.085938 24.328125 -41.921875 C 24.953125 -41.671875 25.59375 -41.484375 26.25 -41.359375 C 26.5 -41.316406 26.738281 -41.210938 26.96875 -41.046875 C 27.195312 -40.890625 27.410156 -40.75 27.609375 -40.625 C 28.648438 -39.875 29.425781 -39.195312 29.9375 -38.59375 C 30.457031 -38 30.941406 -37.128906 31.390625 -35.984375 C 31.804688 -34.984375 31.890625 -33.882812 31.640625 -32.6875 C 31.597656 -32.40625 31.535156 -32.128906 31.453125 -31.859375 C 31.367188 -31.585938 31.304688 -31.285156 31.265625 -30.953125 C 31.265625 -30.421875 31.0625 -29.945312 30.65625 -29.53125 C 30.28125 -29.164062 30.03125 -28.734375 29.90625 -28.234375 C 29.738281 -27.617188 29.457031 -27.101562 29.0625 -26.6875 C 28.675781 -26.269531 28.210938 -25.921875 27.671875 -25.640625 C 27.554688 -25.515625 27.476562 -25.453125 27.4375 -25.453125 C 27.351562 -25.410156 27.226562 -25.390625 27.0625 -25.390625 C 26.894531 -25.390625 26.769531 -25.367188 26.6875 -25.328125 C 26.644531 -25.328125 26.601562 -25.285156 26.5625 -25.203125 C 26.519531 -25.117188 26.519531 -25.035156 26.5625 -24.953125 C 26.769531 -24.742188 26.875 -24.609375 26.875 -24.546875 C 26.875 -24.484375 26.8125 -24.375 26.6875 -24.21875 C 26.5625 -24.09375 26.414062 -24 26.25 -23.9375 C 26.082031 -23.875 25.960938 -23.738281 25.890625 -23.53125 C 25.847656 -23.40625 25.703125 -23.34375 25.453125 -23.34375 C 25.203125 -23.257812 25.078125 -23.15625 25.078125 -23.03125 C 25.035156 -22.539062 24.765625 -22.234375 24.265625 -22.109375 C 24.191406 -22.109375 23.90625 -21.953125 23.40625 -21.640625 C 22.90625 -21.328125 22.65625 -21.148438 22.65625 -21.109375 C 22.613281 -20.984375 22.519531 -20.890625 22.375 -20.828125 C 22.238281 -20.773438 22.128906 -20.707031 22.046875 -20.625 C 21.921875 -20.457031 21.785156 -20.363281 21.640625 -20.34375 C 21.492188 -20.320312 21.335938 -20.269531 21.171875 -20.1875 C 21.003906 -20.0625 20.828125 -19.945312 20.640625 -19.84375 C 20.460938 -19.738281 20.269531 -19.601562 20.0625 -19.4375 C 19.8125 -19.28125 19.570312 -19.128906 19.34375 -18.984375 C 19.125 -18.835938 18.847656 -18.660156 18.515625 -18.453125 C 18.390625 -18.328125 18.242188 -18.265625 18.078125 -18.265625 C 17.867188 -18.265625 17.679688 -18.242188 17.515625 -18.203125 C 17.359375 -18.160156 17.21875 -18.035156 17.09375 -17.828125 C 16.800781 -17.660156 16.488281 -17.503906 16.15625 -17.359375 C 15.832031 -17.222656 15.503906 -17.113281 15.171875 -17.03125 C 14.835938 -16.945312 14.628906 -16.84375 14.546875 -16.71875 C 14.335938 -16.425781 14.078125 -16.238281 13.765625 -16.15625 C 13.460938 -16.070312 13.144531 -15.972656 12.8125 -15.859375 C 12.769531 -15.859375 12.71875 -15.875 12.65625 -15.90625 C 12.59375 -15.945312 12.546875 -15.96875 12.515625 -15.96875 C 12.390625 -15.851562 12.253906 -15.722656 12.109375 -15.578125 C 11.960938 -15.429688 11.847656 -15.253906 11.765625 -15.046875 Z M 20.6875 -22.59375 C 20.644531 -22.59375 20.582031 -22.582031 20.5 -22.5625 C 20.414062 -22.550781 20.332031 -22.546875 20.25 -22.546875 C 20.164062 -22.460938 20 -22.378906 19.75 -22.296875 C 19.789062 -22.535156 19.957031 -22.71875 20.25 -22.84375 C 20.664062 -23.09375 21.097656 -23.3125 21.546875 -23.5 C 22.003906 -23.6875 22.4375 -23.882812 22.84375 -24.09375 C 22.882812 -24.050781 22.90625 -23.976562 22.90625 -23.875 C 22.90625 -23.769531 22.925781 -23.71875 22.96875 -23.71875 C 22.96875 -23.71875 22.976562 -23.726562 23 -23.75 C 23.019531 -23.769531 23.050781 -23.78125 23.09375 -23.78125 C 23.84375 -23.988281 24.523438 -24.273438 25.140625 -24.640625 C 25.796875 -24.929688 26.269531 -25.425781 26.5625 -26.125 C 26.644531 -26.414062 26.738281 -26.664062 26.84375 -26.875 C 26.945312 -27.082031 27.125 -27.226562 27.375 -27.3125 C 27.5 -27.3125 27.648438 -27.566406 27.828125 -28.078125 C 28.015625 -28.597656 28.109375 -28.960938 28.109375 -29.171875 C 27.984375 -29.128906 27.835938 -29.066406 27.671875 -28.984375 C 27.628906 -29.179688 27.648438 -29.34375 27.734375 -29.46875 C 27.816406 -29.59375 27.898438 -29.71875 27.984375 -29.84375 C 28.316406 -30.300781 28.566406 -30.765625 28.734375 -31.234375 C 28.898438 -31.710938 29.046875 -32.21875 29.171875 -32.75 C 29.367188 -33.375 29.5 -34.015625 29.5625 -34.671875 C 29.625 -35.335938 29.550781 -36 29.34375 -36.65625 C 29.226562 -37.03125 29.097656 -37.367188 28.953125 -37.671875 C 28.804688 -37.984375 28.585938 -38.265625 28.296875 -38.515625 C 26.972656 -39.335938 25.804688 -39.894531 24.796875 -40.1875 C 23.785156 -40.476562 22.492188 -40.625 20.921875 -40.625 C 20.804688 -40.625 20.664062 -40.632812 20.5 -40.65625 C 20.332031 -40.675781 20.1875 -40.726562 20.0625 -40.8125 C 19.976562 -40.894531 19.851562 -40.894531 19.6875 -40.8125 C 19.394531 -40.644531 19.085938 -40.5625 18.765625 -40.5625 C 17.316406 -40.5625 15.898438 -40.257812 14.515625 -39.65625 C 13.140625 -39.0625 11.914062 -38.289062 10.84375 -37.34375 C 10.84375 -37.46875 10.820312 -37.570312 10.78125 -37.65625 C 10.78125 -37.726562 10.757812 -37.765625 10.71875 -37.765625 C 10.675781 -37.765625 10.632812 -37.726562 10.59375 -37.65625 C 10.550781 -37.613281 10.519531 -37.570312 10.5 -37.53125 C 10.476562 -37.488281 10.425781 -37.425781 10.34375 -37.34375 C 10.175781 -37.300781 10.03125 -37.15625 9.90625 -36.90625 C 9.863281 -36.78125 9.8125 -36.644531 9.75 -36.5 C 9.6875 -36.351562 9.613281 -36.21875 9.53125 -36.09375 C 9.363281 -35.894531 9.207031 -35.679688 9.0625 -35.453125 C 8.925781 -35.222656 8.878906 -34.941406 8.921875 -34.609375 C 8.921875 -34.285156 8.753906 -33.957031 8.421875 -33.625 C 8.046875 -33.332031 7.796875 -32.941406 7.671875 -32.453125 C 7.515625 -31.910156 7.351562 -31.390625 7.1875 -30.890625 C 7.019531 -30.398438 6.832031 -29.90625 6.625 -29.40625 C 6.5 -29.125 6.363281 -28.835938 6.21875 -28.546875 C 6.070312 -28.253906 6 -27.941406 6 -27.609375 C 6 -27.453125 5.976562 -27.289062 5.9375 -27.125 C 5.894531 -26.957031 5.835938 -26.789062 5.765625 -26.625 C 5.722656 -26.375 5.648438 -26.132812 5.546875 -25.90625 C 5.441406 -25.6875 5.367188 -25.453125 5.328125 -25.203125 C 5.285156 -24.785156 5.210938 -24.359375 5.109375 -23.921875 C 5.003906 -23.492188 4.972656 -23.050781 5.015625 -22.59375 C 5.054688 -22.519531 5.066406 -22.453125 5.046875 -22.390625 C 5.023438 -22.328125 5.015625 -22.273438 5.015625 -22.234375 C 4.890625 -22.066406 4.828125 -21.867188 4.828125 -21.640625 C 4.828125 -21.410156 4.828125 -21.191406 4.828125 -20.984375 C 4.828125 -20.867188 4.828125 -20.738281 4.828125 -20.59375 C 4.828125 -20.445312 4.804688 -20.3125 4.765625 -20.1875 C 4.597656 -19.6875 4.535156 -19.175781 4.578125 -18.65625 C 4.617188 -18.144531 4.617188 -17.625 4.578125 -17.09375 C 4.578125 -16.882812 4.679688 -16.78125 4.890625 -16.78125 C 5.472656 -16.78125 6.175781 -16.832031 7 -16.9375 C 7.820312 -17.039062 8.601562 -17.242188 9.34375 -17.546875 C 10.09375 -17.859375 10.59375 -18.304688 10.84375 -18.890625 C 10.84375 -19.054688 10.859375 -19.160156 10.890625 -19.203125 C 11.097656 -19.441406 11.242188 -19.695312 11.328125 -19.96875 C 11.410156 -20.238281 11.535156 -20.519531 11.703125 -20.8125 C 11.828125 -21.007812 11.953125 -21.242188 12.078125 -21.515625 C 12.203125 -21.785156 12.328125 -22.046875 12.453125 -22.296875 C 12.566406 -22.492188 12.664062 -22.707031 12.75 -22.9375 C 12.832031 -23.164062 12.9375 -23.382812 13.0625 -23.59375 C 13.394531 -24.007812 13.679688 -24.484375 13.921875 -25.015625 C 14.171875 -25.554688 14.460938 -26.03125 14.796875 -26.4375 C 14.878906 -26.519531 14.921875 -26.601562 14.921875 -26.6875 C 14.921875 -26.769531 14.941406 -26.832031 14.984375 -26.875 C 15.148438 -27.332031 15.316406 -27.703125 15.484375 -27.984375 C 15.523438 -28.066406 15.566406 -28.085938 15.609375 -28.046875 C 15.648438 -28.003906 15.691406 -27.984375 15.734375 -27.984375 C 15.816406 -27.984375 15.859375 -28.023438 15.859375 -28.109375 C 15.929688 -28.316406 15.910156 -28.484375 15.796875 -28.609375 C 15.753906 -28.691406 15.742188 -28.773438 15.765625 -28.859375 C 15.785156 -28.941406 15.816406 -29.003906 15.859375 -29.046875 C 15.972656 -29.367188 16.09375 -29.664062 16.21875 -29.9375 C 16.34375 -30.207031 16.46875 -30.488281 16.59375 -30.78125 C 16.800781 -31.394531 17.007812 -32.03125 17.21875 -32.6875 C 17.425781 -33.351562 17.648438 -33.972656 17.890625 -34.546875 C 18.140625 -35.296875 18.328125 -36.0625 18.453125 -36.84375 C 18.660156 -37.75 19.070312 -38.410156 19.6875 -38.828125 C 19.769531 -38.785156 19.832031 -38.765625 19.875 -38.765625 C 19.914062 -38.765625 19.957031 -38.742188 20 -38.703125 C 20.375 -38.578125 20.625 -38.285156 20.75 -37.828125 C 20.832031 -37.546875 20.878906 -37.269531 20.890625 -37 C 20.910156 -36.726562 20.90625 -36.425781 20.875 -36.09375 C 20.707031 -34.65625 20.300781 -33.097656 19.65625 -31.421875 C 19.019531 -29.753906 18.304688 -28.113281 17.515625 -26.5 C 16.734375 -24.894531 15.992188 -23.453125 15.296875 -22.171875 C 15.128906 -21.878906 14.972656 -21.554688 14.828125 -21.203125 C 14.679688 -20.859375 14.503906 -20.519531 14.296875 -20.1875 C 14.253906 -20.101562 14.234375 -19.976562 14.234375 -19.8125 C 14.609375 -19.894531 14.960938 -20.019531 15.296875 -20.1875 C 15.628906 -20.351562 15.957031 -20.519531 16.28125 -20.6875 C 16.738281 -20.882812 17.171875 -21.109375 17.578125 -21.359375 C 17.992188 -21.609375 18.429688 -21.816406 18.890625 -21.984375 C 19.210938 -22.234375 19.5 -22.359375 19.75 -22.359375 L 19.75 -22.109375 C 19.957031 -22.109375 20.144531 -22.128906 20.3125 -22.171875 C 20.476562 -22.210938 20.601562 -22.351562 20.6875 -22.59375 Z M 4.15625 -12.140625 C 4.113281 -12.054688 4.101562 -11.953125 4.125 -11.828125 C 4.144531 -11.703125 4.15625 -11.597656 4.15625 -11.515625 L 4.15625 -2.171875 C 4.269531 -2.253906 4.328125 -2.296875 4.328125 -2.296875 C 4.410156 -2.421875 4.492188 -2.601562 4.578125 -2.84375 C 5.078125 -4.5 5.59375 -6.140625 6.125 -7.765625 C 6.664062 -9.398438 7.242188 -11.019531 7.859375 -12.625 C 6.828125 -13.582031 5.671875 -14.0625 4.390625 -14.0625 C 4.347656 -13.726562 4.328125 -13.394531 4.328125 -13.0625 C 4.328125 -12.726562 4.269531 -12.421875 4.15625 -12.140625 Z M 19.75 -21.046875 C 19.625 -21.046875 19.539062 -20.96875 19.5 -20.8125 C 19.457031 -20.8125 19.414062 -20.820312 19.375 -20.84375 C 19.332031 -20.863281 19.289062 -20.875 19.25 -20.875 C 19.09375 -20.875 18.953125 -20.820312 18.828125 -20.71875 C 18.703125 -20.613281 18.535156 -20.519531 18.328125 -20.4375 C 17.910156 -20.1875 17.492188 -19.96875 17.078125 -19.78125 C 16.671875 -19.59375 16.265625 -19.378906 15.859375 -19.140625 C 15.441406 -18.972656 15.035156 -18.765625 14.640625 -18.515625 C 14.253906 -18.265625 13.832031 -18.078125 13.375 -17.953125 C 13.25 -17.953125 13.144531 -17.867188 13.0625 -17.703125 C 12.976562 -17.617188 12.976562 -17.5 13.0625 -17.34375 C 13.101562 -17.34375 13.15625 -17.332031 13.21875 -17.3125 C 13.28125 -17.289062 13.332031 -17.28125 13.375 -17.28125 C 13.625 -17.476562 13.878906 -17.640625 14.140625 -17.765625 C 14.410156 -17.890625 14.671875 -18.015625 14.921875 -18.140625 C 15.046875 -18.222656 15.179688 -18.273438 15.328125 -18.296875 C 15.472656 -18.316406 15.585938 -18.367188 15.671875 -18.453125 C 16.617188 -19.148438 17.648438 -19.6875 18.765625 -20.0625 C 19.128906 -20.1875 19.375 -20.4375 19.5 -20.8125 C 19.664062 -20.882812 19.75 -20.960938 19.75 -21.046875 Z M 12.75 -22.171875 C 12.625 -21.921875 12.5 -21.648438 12.375 -21.359375 C 12.257812 -21.066406 12.140625 -20.757812 12.015625 -20.4375 C 11.972656 -20.394531 11.941406 -20.320312 11.921875 -20.21875 C 11.898438 -20.113281 11.847656 -20.019531 11.765625 -19.9375 C 11.597656 -19.769531 11.472656 -19.5625 11.390625 -19.3125 C 11.304688 -19.070312 11.203125 -18.847656 11.078125 -18.640625 C 11.078125 -18.640625 11.085938 -18.609375 11.109375 -18.546875 C 11.128906 -18.484375 11.140625 -18.429688 11.140625 -18.390625 C 11.179688 -18.390625 11.222656 -18.398438 11.265625 -18.421875 C 11.304688 -18.441406 11.347656 -18.453125 11.390625 -18.453125 C 11.472656 -18.578125 11.554688 -18.679688 11.640625 -18.765625 C 11.722656 -18.847656 11.765625 -18.953125 11.765625 -19.078125 C 11.765625 -19.273438 11.847656 -19.457031 12.015625 -19.625 C 12.179688 -19.789062 12.304688 -19.957031 12.390625 -20.125 C 12.472656 -20.289062 12.515625 -20.484375 12.515625 -20.703125 C 12.515625 -20.929688 12.570312 -21.128906 12.6875 -21.296875 C 12.8125 -21.503906 13.039062 -21.710938 13.375 -21.921875 C 13.539062 -22.003906 13.625 -22.171875 13.625 -22.421875 C 13.664062 -22.503906 13.664062 -22.582031 13.625 -22.65625 C 13.582031 -22.738281 13.539062 -22.800781 13.5 -22.84375 C 13.582031 -22.882812 13.664062 -22.90625 13.75 -22.90625 C 13.832031 -22.90625 13.894531 -22.945312 13.9375 -23.03125 C 14.019531 -23.363281 14.160156 -23.675781 14.359375 -23.96875 C 14.398438 -24.050781 14.421875 -24.171875 14.421875 -24.328125 C 14.421875 -24.367188 14.410156 -24.410156 14.390625 -24.453125 C 14.367188 -24.492188 14.359375 -24.535156 14.359375 -24.578125 L 14.234375 -24.515625 C 13.867188 -24.066406 13.625 -23.507812 13.5 -22.84375 C 13.332031 -22.800781 13.1875 -22.707031 13.0625 -22.5625 C 12.9375 -22.425781 12.832031 -22.296875 12.75 -22.171875 Z M 8.109375 -16.28125 C 8.484375 -16.28125 8.628906 -16.382812 8.546875 -16.59375 C 8.546875 -16.675781 8.503906 -16.71875 8.421875 -16.71875 C 8.378906 -16.71875 8.335938 -16.695312 8.296875 -16.65625 C 8.253906 -16.613281 8.191406 -16.570312 8.109375 -16.53125 C 7.734375 -16.488281 7.367188 -16.425781 7.015625 -16.34375 C 6.671875 -16.257812 6.3125 -16.21875 5.9375 -16.21875 C 5.613281 -16.21875 5.367188 -16.15625 5.203125 -16.03125 L 5.203125 -15.859375 C 5.285156 -15.816406 5.390625 -15.796875 5.515625 -15.796875 C 5.640625 -15.796875 5.742188 -15.796875 5.828125 -15.796875 C 5.859375 -15.796875 5.882812 -15.796875 5.90625 -15.796875 C 5.925781 -15.796875 5.957031 -15.796875 6 -15.796875 C 6.375 -15.796875 6.722656 -15.851562 7.046875 -15.96875 C 7.378906 -16.09375 7.734375 -16.195312 8.109375 -16.28125 Z M 17.28125 -20.5625 C 16.695312 -20.269531 16.125 -19.988281 15.5625 -19.71875 C 15.007812 -19.445312 14.445312 -19.191406 13.875 -18.953125 C 13.875 -18.953125 13.863281 -18.929688 13.84375 -18.890625 C 13.820312 -18.847656 13.8125 -18.804688 13.8125 -18.765625 C 13.851562 -18.640625 13.9375 -18.640625 14.0625 -18.765625 C 14.300781 -18.847656 14.546875 -18.945312 14.796875 -19.0625 C 15.046875 -19.1875 15.296875 -19.289062 15.546875 -19.375 C 15.828125 -19.5 16.082031 -19.632812 16.3125 -19.78125 C 16.539062 -19.925781 16.78125 -20.0625 17.03125 -20.1875 C 17.113281 -20.226562 17.195312 -20.351562 17.28125 -20.5625 Z M 24.453125 -25.578125 C 24.578125 -25.453125 24.578125 -25.328125 24.453125 -25.203125 C 24.328125 -25.035156 24.171875 -24.898438 23.984375 -24.796875 C 23.804688 -24.691406 23.675781 -24.535156 23.59375 -24.328125 C 23.507812 -24.210938 23.382812 -24.15625 23.21875 -24.15625 C 23.175781 -24.15625 23.132812 -24.15625 23.09375 -24.15625 C 23.050781 -24.15625 22.988281 -24.15625 22.90625 -24.15625 C 23.363281 -24.769531 23.878906 -25.242188 24.453125 -25.578125 Z M 8.609375 -15.96875 C 8.523438 -15.894531 8.546875 -15.835938 8.671875 -15.796875 C 8.710938 -15.796875 8.742188 -15.796875 8.765625 -15.796875 C 8.785156 -15.796875 8.816406 -15.796875 8.859375 -15.796875 C 9.023438 -15.796875 9.164062 -15.851562 9.28125 -15.96875 L 9.28125 -16.15625 C 9.238281 -16.195312 9.160156 -16.21875 9.046875 -16.21875 C 8.796875 -16.21875 8.648438 -16.132812 8.609375 -15.96875 Z M 9.046875 -16.96875 C 9.046875 -16.882812 9.085938 -16.820312 9.171875 -16.78125 C 9.367188 -16.78125 9.550781 -16.84375 9.71875 -16.96875 L 9.71875 -17.15625 L 9.65625 -17.21875 C 9.570312 -17.175781 9.46875 -17.132812 9.34375 -17.09375 C 9.226562 -17.050781 9.128906 -17.007812 9.046875 -16.96875 Z M 26.4375 -27.734375 C 26.476562 -27.773438 26.539062 -27.796875 26.625 -27.796875 C 26.625 -27.753906 26.632812 -27.710938 26.65625 -27.671875 C 26.675781 -27.628906 26.6875 -27.609375 26.6875 -27.609375 C 26.644531 -27.535156 26.582031 -27.445312 26.5 -27.34375 C 26.414062 -27.238281 26.332031 -27.1875 26.25 -27.1875 C 26.25 -27.46875 26.3125 -27.648438 26.4375 -27.734375 Z M 10.34375 -37.34375 L 10.84375 -37.34375 C 10.71875 -37.175781 10.632812 -37.09375 10.59375 -37.09375 C 10.550781 -37.09375 10.46875 -37.175781 10.34375 -37.34375 Z M 17.34375 -20.625 C 17.382812 -20.625 17.414062 -20.625 17.4375 -20.625 C 17.457031 -20.625 17.488281 -20.625 17.53125 -20.625 C 17.644531 -20.625 17.722656 -20.6875 17.765625 -20.8125 C 17.722656 -20.8125 17.691406 -20.8125 17.671875 -20.8125 C 17.648438 -20.8125 17.617188 -20.8125 17.578125 -20.8125 C 17.460938 -20.8125 17.382812 -20.75 17.34375 -20.625 Z M 21.109375 -22.71875 C 21.066406 -22.757812 21.023438 -22.789062 20.984375 -22.8125 C 20.941406 -22.832031 20.921875 -22.84375 20.921875 -22.84375 C 20.890625 -22.800781 20.863281 -22.769531 20.84375 -22.75 C 20.820312 -22.726562 20.789062 -22.695312 20.75 -22.65625 L 20.984375 -22.65625 C 21.023438 -22.65625 21.046875 -22.664062 21.046875 -22.6875 C 21.046875 -22.707031 21.066406 -22.71875 21.109375 -22.71875 Z M 25.265625 -26.125 C 25.265625 -26.039062 25.203125 -25.960938 25.078125 -25.890625 C 25.078125 -26.046875 25.140625 -26.125 25.265625 -26.125 Z M 26.25 -27.125 C 26.207031 -27 26.125 -26.9375 26 -26.9375 C 26 -27.0625 26.082031 -27.125 26.25 -27.125 Z M 20.984375 -21.671875 C 21.023438 -21.671875 21.046875 -21.679688 21.046875 -21.703125 C 21.046875 -21.722656 21.066406 -21.734375 21.109375 -21.734375 C 21.066406 -21.734375 21.023438 -21.742188 20.984375 -21.765625 C 20.941406 -21.785156 20.921875 -21.796875 20.921875 -21.796875 C 20.847656 -21.710938 20.769531 -21.648438 20.6875 -21.609375 C 20.769531 -21.609375 20.828125 -21.617188 20.859375 -21.640625 C 20.898438 -21.660156 20.941406 -21.671875 20.984375 -21.671875 Z M 8.109375 -15.734375 L 8.046875 -15.609375 L 8.109375 -15.546875 Z M 14.359375 -22.046875 L 14.296875 -21.921875 L 14.359375 -21.921875 Z M 9.046875 -10.890625 L 9.046875 -10.84375 L 9.109375 -10.71875 Z M 18.890625 -21.359375 L 18.953125 -21.421875 L 18.890625 -21.421875 Z M 27.671875 -28.984375 C 27.671875 -28.941406 27.648438 -28.921875 27.609375 -28.921875 C 27.609375 -28.921875 27.617188 -28.929688 27.640625 -28.953125 C 27.660156 -28.972656 27.671875 -28.984375 27.671875 -28.984375 Z M 18.328125 -21.171875 L 18.390625 -21.171875 L 18.390625 -21.234375 Z M 13.125 -20 L 13.0625 -19.9375 L 13.125 -19.9375 Z M 10.71875 -14.296875 L 10.71875 -14.359375 L 10.65625 -14.359375 Z M 29.71875 -28.859375 L 29.78125 -28.796875 L 29.78125 -28.859375 Z M 28.984375 -27.859375 L 28.921875 -27.796875 L 28.984375 -27.796875 Z M 7.0625 -15.359375 L 7.125 -15.296875 L 7.125 -15.359375 Z M 25.078125 -25.890625 L 25.015625 -25.890625 C 25.015625 -25.890625 25.035156 -25.890625 25.078125 -25.890625 Z M 25.453125 -24.03125 L 25.328125 -24.03125 Z M 28.046875 8.296875 L 28.046875 8.171875 Z M 7.609375 -7 L 7.5 -7 Z M 7.609375 -7 "/></g></g></g><g fill="#000000" fill-opacity="1"><g transform="translate(240.917063, 196.602691)"><g><path d="M 34 -42.96875 C 34.082031 -42.96875 34.15625 -42.945312 34.21875 -42.90625 C 34.28125 -42.863281 34.328125 -42.84375 34.359375 -42.84375 C 34.441406 -42.84375 34.503906 -42.90625 34.546875 -43.03125 C 34.546875 -43.070312 34.609375 -43.03125 34.734375 -42.90625 C 34.816406 -42.78125 34.898438 -42.71875 34.984375 -42.71875 C 35.066406 -42.71875 35.109375 -42.738281 35.109375 -42.78125 C 35.273438 -43.03125 35.398438 -43.15625 35.484375 -43.15625 C 35.484375 -43.15625 35.492188 -43.144531 35.515625 -43.125 C 35.535156 -43.101562 35.566406 -43.09375 35.609375 -43.09375 C 35.773438 -43.007812 36.039062 -42.96875 36.40625 -42.96875 C 36.613281 -42.96875 36.789062 -42.957031 36.9375 -42.9375 C 37.082031 -42.914062 37.238281 -42.863281 37.40625 -42.78125 C 37.488281 -42.738281 37.597656 -42.75 37.734375 -42.8125 C 37.878906 -42.875 38.015625 -42.925781 38.140625 -42.96875 C 38.390625 -42.96875 38.597656 -42.90625 38.765625 -42.78125 C 38.890625 -42.738281 39.003906 -42.6875 39.109375 -42.625 C 39.210938 -42.570312 39.320312 -42.546875 39.4375 -42.546875 C 39.5625 -42.546875 39.644531 -42.566406 39.6875 -42.609375 C 39.726562 -42.648438 39.789062 -42.671875 39.875 -42.671875 C 39.957031 -42.671875 40.0625 -42.648438 40.1875 -42.609375 C 40.3125 -42.566406 40.414062 -42.546875 40.5 -42.546875 C 40.625 -42.546875 40.707031 -42.566406 40.75 -42.609375 C 40.914062 -42.679688 41.035156 -42.71875 41.109375 -42.71875 C 41.234375 -42.71875 41.378906 -42.679688 41.546875 -42.609375 C 41.628906 -42.609375 41.703125 -42.609375 41.765625 -42.609375 C 41.828125 -42.609375 41.878906 -42.609375 41.921875 -42.609375 C 42.085938 -42.609375 42.210938 -42.503906 42.296875 -42.296875 C 42.460938 -42.378906 42.585938 -42.421875 42.671875 -42.421875 C 42.785156 -42.421875 42.894531 -42.398438 43 -42.359375 C 43.101562 -42.316406 43.195312 -42.273438 43.28125 -42.234375 C 43.363281 -42.148438 43.46875 -42.117188 43.59375 -42.140625 C 43.71875 -42.160156 43.84375 -42.109375 43.96875 -41.984375 C 43.71875 -41.941406 43.46875 -41.910156 43.21875 -41.890625 C 42.96875 -41.867188 42.742188 -41.859375 42.546875 -41.859375 C 42.128906 -41.859375 41.742188 -41.890625 41.390625 -41.953125 C 41.046875 -42.015625 40.6875 -42.085938 40.3125 -42.171875 L 31.578125 -42.171875 C 31.242188 -42.171875 31.019531 -42.109375 30.90625 -41.984375 C 30.738281 -41.941406 30.59375 -41.898438 30.46875 -41.859375 C 30.34375 -41.816406 30.195312 -41.796875 30.03125 -41.796875 C 29.863281 -41.796875 29.738281 -41.816406 29.65625 -41.859375 C 29.53125 -41.941406 29.414062 -41.929688 29.3125 -41.828125 C 29.21875 -41.722656 29.109375 -41.671875 28.984375 -41.671875 C 28.691406 -41.671875 28.398438 -41.648438 28.109375 -41.609375 C 27.816406 -41.566406 27.53125 -41.523438 27.25 -41.484375 C 27.039062 -41.484375 26.84375 -41.460938 26.65625 -41.421875 C 26.46875 -41.378906 26.269531 -41.359375 26.0625 -41.359375 C 25.976562 -41.359375 25.90625 -41.367188 25.84375 -41.390625 C 25.789062 -41.410156 25.722656 -41.421875 25.640625 -41.421875 C 25.597656 -41.421875 25.546875 -41.421875 25.484375 -41.421875 C 25.421875 -41.421875 25.347656 -41.421875 25.265625 -41.421875 C 25.097656 -41.421875 24.941406 -41.410156 24.796875 -41.390625 C 24.648438 -41.367188 24.492188 -41.296875 24.328125 -41.171875 C 24.285156 -41.128906 24.207031 -41.109375 24.09375 -41.109375 C 24.050781 -41.109375 24.007812 -41.109375 23.96875 -41.109375 C 23.925781 -41.109375 23.863281 -41.109375 23.78125 -41.109375 C 23.488281 -41.109375 23.164062 -41.066406 22.8125 -40.984375 C 22.46875 -40.910156 22.128906 -40.875 21.796875 -40.875 C 21.585938 -40.875 21.242188 -40.820312 20.765625 -40.71875 C 20.296875 -40.613281 19.832031 -40.488281 19.375 -40.34375 C 18.925781 -40.195312 18.597656 -40.0625 18.390625 -39.9375 C 18.304688 -39.851562 18.222656 -39.769531 18.140625 -39.6875 C 18.054688 -39.601562 17.992188 -39.5 17.953125 -39.375 C 17.910156 -39.175781 17.867188 -38.984375 17.828125 -38.796875 C 17.785156 -38.609375 17.765625 -38.410156 17.765625 -38.203125 C 17.804688 -37.953125 17.785156 -37.691406 17.703125 -37.421875 C 17.617188 -37.160156 17.5625 -36.882812 17.53125 -36.59375 C 17.363281 -35.6875 17.195312 -34.757812 17.03125 -33.8125 C 16.863281 -32.863281 16.675781 -31.910156 16.46875 -30.953125 C 16.300781 -30.210938 16.132812 -29.460938 15.96875 -28.703125 C 15.8125 -27.941406 15.691406 -27.164062 15.609375 -26.375 C 15.609375 -26.125 15.578125 -25.875 15.515625 -25.625 C 15.453125 -25.382812 15.378906 -25.160156 15.296875 -24.953125 C 15.253906 -24.660156 15.179688 -24.378906 15.078125 -24.109375 C 14.972656 -23.847656 14.898438 -23.570312 14.859375 -23.28125 C 14.859375 -22.988281 14.816406 -22.707031 14.734375 -22.4375 C 14.648438 -22.175781 14.628906 -21.878906 14.671875 -21.546875 C 14.671875 -21.546875 14.671875 -21.535156 14.671875 -21.515625 C 14.671875 -21.492188 14.648438 -21.460938 14.609375 -21.421875 C 14.359375 -20.804688 14.210938 -20.175781 14.171875 -19.53125 C 14.140625 -18.894531 14.019531 -18.265625 13.8125 -17.640625 C 13.601562 -16.984375 13.445312 -16.320312 13.34375 -15.65625 C 13.238281 -15 13.125 -14.34375 13 -13.6875 C 13 -13.476562 12.957031 -13.289062 12.875 -13.125 C 12.75 -12.75 12.664062 -12.375 12.625 -12 C 12.582031 -11.632812 12.546875 -11.265625 12.515625 -10.890625 C 12.472656 -10.609375 12.421875 -10.320312 12.359375 -10.03125 C 12.296875 -9.738281 12.222656 -9.453125 12.140625 -9.171875 C 12.097656 -8.960938 12.046875 -8.753906 11.984375 -8.546875 C 11.921875 -8.335938 11.847656 -8.128906 11.765625 -7.921875 C 11.722656 -7.753906 11.679688 -7.578125 11.640625 -7.390625 C 11.597656 -7.210938 11.578125 -7.019531 11.578125 -6.8125 L 11.578125 -6.4375 C 11.410156 -6.101562 11.296875 -5.757812 11.234375 -5.40625 C 11.171875 -5.0625 11.117188 -4.703125 11.078125 -4.328125 C 11.078125 -4.285156 11.003906 -3.984375 10.859375 -3.421875 C 10.722656 -2.867188 10.59375 -2.320312 10.46875 -1.78125 C 10.34375 -1.25 10.257812 -0.941406 10.21875 -0.859375 C 10.175781 -0.617188 10.125 -0.382812 10.0625 -0.15625 C 10 0.0703125 9.945312 0.332031 9.90625 0.625 C 9.820312 1.15625 9.707031 1.675781 9.5625 2.1875 C 9.414062 2.707031 9.285156 3.21875 9.171875 3.71875 C 9.046875 4.082031 8.816406 4.265625 8.484375 4.265625 C 8.441406 4.265625 8.398438 4.253906 8.359375 4.234375 C 8.316406 4.210938 8.273438 4.203125 8.234375 4.203125 C 8.066406 4.128906 7.878906 4.007812 7.671875 3.84375 C 7.304688 3.632812 7.101562 3.414062 7.0625 3.1875 C 7.019531 2.957031 7.019531 2.679688 7.0625 2.359375 C 7.269531 1.484375 7.484375 0.601562 7.703125 -0.28125 C 7.929688 -1.164062 8.128906 -2.0625 8.296875 -2.96875 C 8.421875 -3.71875 8.585938 -4.585938 8.796875 -5.578125 C 9.003906 -6.566406 9.226562 -7.566406 9.46875 -8.578125 C 9.71875 -9.585938 9.945312 -10.441406 10.15625 -11.140625 C 10.15625 -11.597656 10.21875 -12.03125 10.34375 -12.4375 C 10.46875 -12.851562 10.550781 -13.269531 10.59375 -13.6875 C 10.675781 -14.257812 10.765625 -14.84375 10.859375 -15.4375 C 10.960938 -16.039062 11.054688 -16.613281 11.140625 -17.15625 C 11.265625 -17.976562 11.410156 -18.800781 11.578125 -19.625 C 11.742188 -20.457031 11.910156 -21.265625 12.078125 -22.046875 C 12.242188 -22.296875 12.304688 -22.550781 12.265625 -22.8125 C 12.222656 -23.082031 12.285156 -23.34375 12.453125 -23.59375 C 12.492188 -24.164062 12.582031 -24.726562 12.71875 -25.28125 C 12.863281 -25.84375 12.957031 -26.394531 13 -26.9375 C 13.082031 -27.46875 13.175781 -27.984375 13.28125 -28.484375 C 13.382812 -28.984375 13.476562 -29.476562 13.5625 -29.96875 L 13.9375 -32.203125 C 14.019531 -32.523438 14.082031 -32.832031 14.125 -33.125 C 14.164062 -33.414062 14.203125 -33.707031 14.234375 -34 C 14.316406 -34.445312 14.398438 -34.878906 14.484375 -35.296875 C 14.566406 -35.710938 14.628906 -36.125 14.671875 -36.53125 C 14.710938 -36.820312 14.765625 -37.109375 14.828125 -37.390625 C 14.890625 -37.679688 14.921875 -37.972656 14.921875 -38.265625 C 14.878906 -38.390625 14.859375 -38.535156 14.859375 -38.703125 C 13.253906 -38.285156 11.707031 -37.789062 10.21875 -37.21875 C 10.007812 -37.175781 9.5625 -37.03125 8.875 -36.78125 C 8.195312 -36.53125 7.457031 -36.25 6.65625 -35.9375 C 5.851562 -35.632812 5.148438 -35.347656 4.546875 -35.078125 C 3.953125 -34.804688 3.613281 -34.609375 3.53125 -34.484375 C 3.363281 -34.285156 3.132812 -34.175781 2.84375 -34.15625 C 2.5625 -34.132812 2.316406 -34.0625 2.109375 -33.9375 L 1.984375 -33.9375 C 1.941406 -33.894531 1.878906 -33.875 1.796875 -33.875 C 1.710938 -33.875 1.609375 -33.925781 1.484375 -34.03125 C 1.359375 -34.132812 1.234375 -34.144531 1.109375 -34.0625 C 0.984375 -33.976562 0.847656 -33.925781 0.703125 -33.90625 C 0.566406 -33.882812 0.4375 -33.875 0.3125 -33.875 C -0.0195312 -33.957031 -0.164062 -34.160156 -0.125 -34.484375 C 0 -35.066406 0.191406 -35.460938 0.453125 -35.671875 C 0.722656 -35.878906 1.085938 -36.0625 1.546875 -36.21875 C 2.046875 -36.425781 2.53125 -36.625 3 -36.8125 C 3.476562 -37 3.941406 -37.195312 4.390625 -37.40625 C 4.804688 -37.601562 5.21875 -37.753906 5.625 -37.859375 C 6.039062 -37.960938 6.457031 -38.078125 6.875 -38.203125 C 6.957031 -38.285156 7.070312 -38.328125 7.21875 -38.328125 C 7.363281 -38.328125 7.457031 -38.367188 7.5 -38.453125 C 8.070312 -38.828125 8.695312 -39.066406 9.375 -39.171875 C 10.0625 -39.273438 10.691406 -39.46875 11.265625 -39.75 C 11.847656 -39.875 12.425781 -40.039062 13 -40.25 C 13.582031 -40.457031 14.140625 -40.664062 14.671875 -40.875 C 15.171875 -40.988281 15.523438 -41.234375 15.734375 -41.609375 C 15.929688 -41.859375 16.132812 -41.984375 16.34375 -41.984375 C 16.46875 -41.984375 16.570312 -41.960938 16.65625 -41.921875 C 16.820312 -41.878906 16.976562 -41.828125 17.125 -41.765625 C 17.269531 -41.703125 17.421875 -41.671875 17.578125 -41.671875 C 17.785156 -41.671875 18.015625 -41.734375 18.265625 -41.859375 C 18.847656 -41.859375 19.375 -41.960938 19.84375 -42.171875 C 20.320312 -42.378906 20.828125 -42.503906 21.359375 -42.546875 C 21.609375 -42.628906 21.753906 -42.648438 21.796875 -42.609375 C 21.921875 -42.523438 22.085938 -42.484375 22.296875 -42.484375 C 22.421875 -42.484375 22.539062 -42.503906 22.65625 -42.546875 C 22.78125 -42.585938 22.882812 -42.628906 22.96875 -42.671875 C 23.34375 -42.867188 23.773438 -42.96875 24.265625 -42.96875 C 24.347656 -42.96875 24.441406 -42.96875 24.546875 -42.96875 C 24.648438 -42.96875 24.742188 -42.96875 24.828125 -42.96875 C 25.035156 -42.96875 25.222656 -42.976562 25.390625 -43 C 25.554688 -43.019531 25.722656 -43.070312 25.890625 -43.15625 C 26.128906 -43.195312 26.375 -43.21875 26.625 -43.21875 C 26.875 -43.21875 27.125 -43.21875 27.375 -43.21875 C 27.613281 -43.21875 27.859375 -43.21875 28.109375 -43.21875 C 28.359375 -43.21875 28.609375 -43.195312 28.859375 -43.15625 C 28.941406 -43.070312 29.023438 -43.03125 29.109375 -43.03125 C 29.191406 -43.03125 29.28125 -43.0625 29.375 -43.125 C 29.476562 -43.1875 29.59375 -43.21875 29.71875 -43.21875 C 29.925781 -43.21875 30.125 -43.21875 30.3125 -43.21875 C 30.5 -43.21875 30.675781 -43.21875 30.84375 -43.21875 C 30.957031 -43.21875 31.066406 -43.195312 31.171875 -43.15625 C 31.273438 -43.113281 31.367188 -43.09375 31.453125 -43.09375 C 31.578125 -43.09375 31.660156 -43.113281 31.703125 -43.15625 C 31.742188 -43.195312 31.828125 -43.21875 31.953125 -43.21875 C 32.078125 -43.21875 32.160156 -43.195312 32.203125 -43.15625 C 32.285156 -43.15625 32.382812 -43.125 32.5 -43.0625 C 32.625 -43 32.75 -42.988281 32.875 -43.03125 C 32.957031 -43.03125 33.050781 -43.0625 33.15625 -43.125 C 33.257812 -43.1875 33.375 -43.21875 33.5 -43.21875 C 33.789062 -43.132812 33.957031 -43.050781 34 -42.96875 Z M 9.53125 -6.0625 C 9.445312 -5.9375 9.414062 -5.8125 9.4375 -5.6875 C 9.457031 -5.570312 9.46875 -5.472656 9.46875 -5.390625 C 9.71875 -5.472656 9.738281 -5.695312 9.53125 -6.0625 Z M 33.6875 -42.90625 C 33.644531 -42.90625 33.625 -42.882812 33.625 -42.84375 C 33.625 -42.800781 33.625 -42.78125 33.625 -42.78125 C 33.664062 -42.78125 33.6875 -42.769531 33.6875 -42.75 C 33.6875 -42.726562 33.707031 -42.71875 33.75 -42.71875 C 33.875 -42.71875 33.957031 -42.800781 34 -42.96875 C 33.914062 -42.925781 33.8125 -42.90625 33.6875 -42.90625 Z M 10.28125 -10.34375 L 10.28125 -10.46875 L 10.21875 -10.46875 Z M 9.34375 -0.3125 L 9.28125 -0.375 L 9.28125 -0.3125 Z M 12.453125 -17.46875 L 12.390625 -17.46875 L 12.453125 -17.40625 Z M 11.640625 -17.46875 L 11.765625 -17.46875 Z M 9.78125 -7 L 9.78125 -7.125 Z M 9.78125 -7 "/></g></g></g><path stroke-linecap="butt" transform="matrix(0.749982, -0.00520926, 0.00520926, 0.749982, 84.419735, 188.945438)" fill="none" stroke-linejoin="miter" d="M -0.000618354 0.49984 L 277.485251 0.500084 " stroke="#000000" stroke-width="1" stroke-opacity="1" stroke-miterlimit="4"/></svg>